<?xml version="1.0" standalone="no"?>
<!DOCTYPE svg PUBLIC "-//W3C//DTD SVG 20010904//EN"
 "http://www.w3.org/TR/2001/REC-SVG-20010904/DTD/svg10.dtd">
<svg version="1.0" xmlns="http://www.w3.org/2000/svg"
 width="512.000000pt" height="512.000000pt" viewBox="0 0 512.000000 512.000000"
 preserveAspectRatio="xMidYMid meet">
<metadata>
Created by potrace 1.11, written by Peter Selinger 2001-2013
</metadata>
<g transform="translate(0.000000,512.000000) scale(0.100000,-0.100000)"
fill="#000000" stroke="none">
<path d="M2350 5114 c-19 -2 -73 -9 -120 -15 -463 -56 -936 -260 -1303 -562
-417 -343 -718 -819 -852 -1346 -57 -228 -69 -335 -69 -626 0 -235 3 -287 22
-399 94 -543 318 -991 681 -1369 219 -226 436 -385 716 -523 258 -126 509
-203 810 -246 136 -20 522 -16 665 5 280 43 526 120 778 244 l112 55 0 52 0
51 -144 -71 c-353 -175 -670 -248 -1081 -248 -310 -1 -494 28 -774 120 -727
239 -1302 806 -1555 1533 -177 507 -177 1085 0 1592 84 241 203 467 351 663
407 543 986 882 1668 978 135 19 503 16 650 -5 264 -39 504 -114 741 -231
l144 -71 0 51 0 52 -112 55 c-249 122 -498 201 -768 242 -100 15 -483 28 -560
19z"/>
<path d="M2105 4695 c-67 -35 -175 -134 -175 -161 0 -6 -6 -17 -13 -23 -8 -6
-19 -34 -26 -63 -11 -52 -16 -79 -46 -298 -7 -58 -26 -181 -40 -275 -15 -93
-31 -204 -35 -245 -7 -63 -41 -298 -65 -455 -4 -22 -9 -56 -11 -75 -12 -96
-26 -194 -40 -280 -9 -52 -18 -108 -20 -125 -2 -16 -6 -43 -10 -59 -3 -16 -10
-65 -15 -110 -5 -45 -10 -93 -12 -109 -2 -15 2 -32 8 -37 13 -11 1859 -15
1877 -4 10 6 7 68 -11 224 -13 111 -40 290 -45 298 -2 4 -9 69 -16 144 -6 75
-20 185 -31 245 -11 59 -24 144 -29 188 -14 122 -18 155 -28 220 -5 33 -28
206 -52 385 -23 179 -46 332 -50 341 -5 9 -14 35 -20 58 -16 61 -97 161 -156
193 -52 28 -156 47 -234 43 -73 -4 -118 -26 -192 -94 l-70 -64 -26 34 c-36 45
-65 72 -94 85 -81 38 -110 46 -178 50 -70 4 -79 2 -145 -31z m259 -65 c19 -12
37 -27 40 -35 3 -8 15 -15 26 -15 13 0 20 -7 20 -20 0 -11 10 -25 23 -31 12
-6 30 -28 41 -51 15 -33 16 -44 6 -63 -7 -13 -9 -28 -6 -34 8 -13 72 56 77 84
3 13 14 21 32 23 25 3 40 22 17 22 -11 0 -14 33 -4 43 4 3 13 -1 22 -9 20 -20
41 -2 23 20 -7 8 -10 20 -6 26 8 14 32 13 37 -2 2 -6 10 -8 16 -4 7 4 10 16 7
26 -7 24 10 29 108 35 77 4 103 -5 70 -24 -14 -7 -15 -13 -6 -22 14 -14 33 -4
33 18 0 12 6 14 27 8 67 -17 156 -125 160 -195 1 -19 5 -50 8 -67 5 -22 3 -33
-4 -33 -6 0 -11 -7 -11 -15 0 -8 6 -15 13 -15 8 0 18 -16 24 -35 10 -32 9 -35
-8 -35 -10 0 -19 -7 -19 -15 0 -8 9 -15 19 -15 16 0 21 -10 28 -52 5 -29 6
-61 1 -70 -5 -10 -4 -19 2 -23 5 -3 10 -28 10 -55 0 -27 5 -52 10 -55 16 -10
12 -62 -6 -69 -18 -7 -14 -31 5 -31 16 0 31 -25 31 -52 0 -16 -6 -23 -20 -23
-11 0 -20 -6 -20 -14 0 -20 17 -29 23 -14 3 9 8 10 15 3 14 -13 35 -191 27
-227 -4 -17 -2 -28 4 -28 6 0 11 -11 11 -25 0 -28 -16 -32 -40 -10 -14 13 -22
14 -44 4 -21 -10 -31 -10 -51 1 -20 10 -28 11 -37 2 -16 -16 -61 -15 -77 1
-10 10 -15 8 -29 -9 -9 -12 -36 -32 -60 -44 -41 -23 -42 -23 -56 -4 -12 15
-17 16 -27 7 -10 -10 -10 -15 0 -27 11 -13 9 -16 -13 -22 -15 -3 -31 -14 -36
-24 -20 -37 -110 -65 -125 -40 -4 6 -16 3 -32 -10 -31 -24 -51 -26 -59 -5 -4
8 -15 15 -26 15 -22 0 -50 56 -42 87 8 28 55 54 77 42 25 -14 79 25 75 55 -2
16 -9 20 -30 18 -29 -3 -36 6 -18 24 8 8 6 15 -4 23 -20 17 -38 4 -31 -20 7
-22 7 -22 -33 -8 -17 6 -33 17 -36 26 -6 14 -8 14 -24 1 -30 -27 -62 -32 -77
-11 -11 14 -16 15 -26 6 -10 -10 -10 -15 0 -27 10 -12 7 -15 -21 -18 -27 -2
-33 -7 -31 -25 2 -18 -2 -23 -20 -23 -22 0 -23 -4 -25 -89 -2 -78 0 -93 20
-125 28 -44 100 -74 185 -78 65 -2 200 31 242 61 14 10 67 38 116 62 84 41 95
44 170 43 90 0 122 -8 215 -52 44 -21 58 -31 42 -31 -12 -1 -33 5 -45 13 -28
18 -125 36 -195 36 -52 0 -157 -22 -190 -40 -80 -43 -237 -110 -281 -120 -132
-31 -298 -5 -403 63 -30 19 -75 38 -99 42 -24 4 -50 12 -58 19 -17 14 -154 11
-159 -4 -2 -5 -12 -10 -23 -10 -41 0 -12 30 54 55 56 21 119 17 228 -15 58
-18 86 -33 135 -76 59 -52 84 -65 84 -44 0 16 -58 102 -79 116 -11 8 -21 24
-23 36 -2 13 -14 28 -27 35 -13 6 -28 19 -33 27 -5 9 -18 16 -28 16 -14 0 -20
7 -20 23 0 32 -8 38 -31 24 -14 -9 -21 -9 -31 1 -10 10 -10 14 1 21 16 10 6
31 -15 31 -8 0 -14 -9 -14 -19 0 -23 -34 -18 -65 10 -14 12 -29 16 -44 12 -20
-5 -22 -3 -16 16 6 19 4 22 -12 19 -10 -2 -17 -10 -15 -17 1 -7 -3 -11 -10 -8
-23 8 -7 197 17 197 22 0 30 22 12 35 -13 9 -14 19 -6 53 5 23 9 45 8 49 -4
23 4 29 31 25 23 -3 30 0 30 12 0 20 -32 35 -38 18 -7 -21 -22 -13 -22 12 0
37 10 56 31 56 12 0 19 7 19 20 0 13 -7 20 -19 20 -15 0 -18 5 -14 23 3 12 12
29 20 39 11 12 12 20 3 35 -8 12 -9 34 -3 68 7 40 12 50 28 50 11 0 21 8 23
19 3 15 0 18 -17 13 -18 -4 -21 -1 -21 23 0 17 8 33 23 43 18 12 20 18 10 28
-16 16 -17 65 -3 74 6 4 8 15 5 26 -9 27 3 43 20 29 8 -7 19 -9 25 -5 15 9 12
32 -5 39 -20 7 -5 41 34 73 29 25 42 29 39 11 -2 -6 5 -14 15 -16 15 -3 17 2
15 25 -2 22 1 28 17 29 11 0 28 4 38 8 10 5 35 6 57 2 22 -3 41 -2 45 4 10 16
41 12 79 -10z m870 -1495 c29 -9 61 -22 72 -30 18 -14 18 -14 1 -15 -10 0 -27
5 -38 11 -57 30 -289 27 -384 -5 -22 -8 -83 -26 -135 -41 -52 -15 -106 -31
-119 -36 -67 -27 -205 -19 -286 16 -16 7 -50 18 -75 25 -25 7 -50 16 -57 22
-36 29 -213 25 -335 -7 -18 -5 -28 -3 -28 4 0 6 5 11 12 11 6 0 19 6 27 14 20
17 128 34 202 31 33 -1 87 -15 135 -33 116 -44 180 -61 259 -68 83 -7 152 6
335 61 190 58 313 69 414 40z m-1214 -246 c0 -38 -4 -49 -16 -49 -10 0 -13 6
-10 18 4 10 -1 27 -9 38 -19 26 -19 42 3 47 28 6 32 -1 32 -54z m106 55 c18
-5 24 -17 33 -79 11 -78 8 -105 -15 -105 -9 0 -14 20 -16 73 -3 64 -5 72 -23
72 -18 0 -20 -8 -23 -72 -3 -65 -5 -73 -22 -73 -21 0 -27 15 -10 25 6 3 10 42
10 86 0 75 1 79 23 79 12 0 32 -3 43 -6z m148 -11 c-1 -7 -2 -49 -2 -93 -2
-63 -5 -80 -17 -80 -11 0 -15 17 -17 71 -3 72 -4 73 -47 96 -1 1 0 7 4 13 9
15 80 9 79 -7z m120 11 c13 -5 16 -23 16 -95 0 -53 -4 -89 -10 -89 -6 0 -10
33 -10 80 l0 80 -40 0 c-57 0 -51 27 7 29 12 1 28 -2 37 -5z m254 -12 c2 -8
-9 -12 -37 -12 -35 0 -58 10 -47 21 10 10 80 2 84 -9z m84 -9 c16 -33 32 -36
36 -5 2 12 8 22 14 22 6 0 8 -21 4 -57 -3 -32 -5 -73 -5 -91 0 -32 -2 -33 -36
-30 -37 3 -49 21 -18 26 35 7 35 21 0 85 -20 36 -33 68 -30 71 12 12 22 6 35
-21z m198 -48 c0 -87 -18 -115 -71 -115 -30 0 -31 2 -25 31 3 17 6 58 6 90 0
35 4 59 11 59 6 0 10 -22 9 -57 -2 -85 -2 -85 23 -81 20 3 22 9 25 76 4 95 22
93 22 -3z m88 -18 c2 -69 0 -88 -10 -85 -8 3 -14 27 -16 69 -2 35 -7 68 -13
74 -17 17 -10 37 14 33 21 -3 22 -8 25 -91z m150 2 c2 -74 0 -88 -14 -93 -23
-9 -42 10 -26 26 7 7 12 38 12 71 0 50 -2 58 -17 55 -13 -2 -20 -18 -26 -53
-5 -28 -11 -61 -14 -75 -11 -46 -15 5 -5 60 7 40 6 54 -4 65 -27 27 -16 36 39
33 l52 -3 3 -86z m136 69 c9 -35 7 -131 -4 -148 -16 -26 -25 0 -22 61 4 67 -7
89 -45 89 -14 0 -21 4 -18 10 3 6 23 10 44 10 32 0 40 -4 45 -22z m-1374 -78
c0 -108 -18 -122 -22 -17 -3 69 -4 72 -28 72 -24 0 -25 -3 -28 -72 -3 -72 -3
-73 -30 -73 -25 1 -25 2 -9 14 13 11 17 29 17 90 l0 76 50 0 50 0 0 -90z m721
-17 c2 -29 0 -56 -4 -59 -4 -4 -7 21 -7 56 0 75 7 77 11 3z m579 -8 c0 -30 -4
-55 -10 -55 -5 0 -10 25 -10 55 0 30 5 55 10 55 6 0 10 -25 10 -55z m-890 -10
c0 -53 -11 -72 -24 -39 -8 20 4 94 15 94 5 0 9 -25 9 -55z m240 -1 c0 -24 -4
-44 -10 -44 -5 0 -10 23 -10 51 0 31 4 48 10 44 6 -3 10 -26 10 -51z m-210
-173 c0 -32 3 -72 6 -89 6 -27 3 -32 -20 -38 -14 -3 -37 -3 -51 0 -24 6 -25 9
-25 96 l0 90 45 0 45 0 0 -59z m108 10 c2 -24 -2 -49 -7 -54 -8 -8 -11 -1 -11
25 0 19 -7 41 -15 48 -22 18 -18 32 8 28 18 -2 23 -10 25 -47z m232 -36 c0
-47 -4 -85 -9 -85 -14 0 -21 28 -21 87 0 51 -2 54 -22 51 -25 -3 -35 -32 -37
-106 -1 -26 -5 -42 -12 -40 -6 2 -10 7 -10 11 1 4 1 43 1 87 l0 80 55 0 55 0
0 -85z m110 10 c0 -58 4 -77 15 -81 31 -12 13 -24 -35 -24 -38 0 -50 4 -50 15
0 8 9 15 19 15 24 0 31 19 31 81 0 46 -2 49 -25 49 -14 0 -25 5 -25 10 0 6 16
10 35 10 l35 0 0 -75z m-270 -5 c0 -5 -7 -10 -15 -10 -8 0 -15 5 -15 10 0 6 7
10 15 10 8 0 15 -4 15 -10z"/>
<path d="M2804 4609 c-7 -12 15 -31 28 -23 4 3 8 12 8 20 0 17 -26 19 -36 3z"/>
<path d="M2205 4600 c-7 -12 2 -30 16 -30 5 0 9 9 9 20 0 21 -15 27 -25 10z"/>
<path d="M2305 4600 c-11 -17 5 -32 21 -19 7 6 11 15 8 20 -7 12 -21 11 -29
-1z"/>
<path d="M2757 4573 c-14 -13 -6 -33 13 -33 13 0 20 7 20 20 0 19 -20 27 -33
13z"/>
<path d="M2857 4573 c-8 -7 11 -33 24 -33 5 0 9 9 9 20 0 19 -20 27 -33 13z"/>
<path d="M2957 4574 c-9 -10 2 -24 19 -24 8 0 14 7 14 15 0 15 -21 21 -33 9z"/>
<path d="M2356 4563 c-3 -4 -6 -15 -6 -25 0 -24 33 -21 38 3 3 17 -21 33 -32
22z"/>
<path d="M2053 4544 c-8 -21 13 -42 28 -27 13 13 5 43 -11 43 -6 0 -13 -7 -17
-16z"/>
<path d="M2152 4548 c-19 -19 -14 -28 14 -28 18 0 25 5 22 17 -4 21 -21 26
-36 11z"/>
<path d="M2255 4551 c-8 -15 3 -31 21 -31 9 0 14 7 12 17 -4 20 -24 28 -33 14z"/>
<path d="M2710 4515 c-10 -12 -9 -16 5 -21 23 -9 40 10 22 25 -11 9 -17 8 -27
-4z"/>
<path d="M2812 4518 c-18 -18 -14 -28 8 -28 11 0 20 6 20 14 0 21 -15 27 -28
14z"/>
<path d="M2915 4520 c-7 -12 2 -30 16 -30 5 0 9 9 9 20 0 21 -15 27 -25 10z"/>
<path d="M3010 4516 c0 -21 21 -31 30 -15 5 7 6 17 4 21 -9 14 -34 9 -34 -6z"/>
<path d="M2107 4503 c-13 -12 -7 -33 8 -33 8 0 15 9 15 20 0 20 -11 26 -23 13z"/>
<path d="M2207 4503 c-14 -13 -7 -33 11 -33 24 0 32 8 25 26 -5 15 -25 19 -36
7z"/>
<path d="M2302 4493 c5 -26 38 -29 38 -4 0 15 -6 21 -21 21 -14 0 -19 -5 -17
-17z"/>
<path d="M2400 4501 c0 -5 6 -14 14 -20 12 -10 17 -8 26 8 9 19 8 21 -15 21
-14 0 -25 -4 -25 -9z"/>
<path d="M2760 4460 c0 -11 7 -20 15 -20 8 0 15 9 15 20 0 11 -7 20 -15 20 -8
0 -15 -9 -15 -20z"/>
<path d="M2864 4469 c-8 -14 11 -33 25 -25 11 7 4 36 -9 36 -5 0 -12 -5 -16
-11z"/>
<path d="M2955 4470 c-8 -14 3 -30 21 -30 8 0 14 9 14 20 0 21 -24 28 -35 10z"/>
<path d="M3060 4459 c0 -14 5 -19 17 -17 26 5 29 38 4 38 -15 0 -21 -6 -21
-21z"/>
<path d="M2160 4441 c0 -11 4 -21 9 -21 18 0 21 18 6 30 -13 10 -15 9 -15 -9z"/>
<path d="M2254 4449 c-9 -15 11 -33 30 -26 9 4 13 13 10 22 -7 17 -30 20 -40
4z"/>
<path d="M2352 4443 c4 -21 33 -25 33 -3 0 8 -8 16 -18 18 -14 3 -18 -1 -15
-15z"/>
<path d="M2453 4448 c2 -7 10 -13 17 -13 7 0 15 6 18 13 2 7 -5 12 -18 12 -13
0 -20 -5 -17 -12z"/>
<path d="M2662 4449 c2 -6 8 -10 13 -10 5 0 11 4 13 10 2 6 -4 11 -13 11 -9 0
-15 -5 -13 -11z"/>
<path d="M2056 4442 c-2 -4 -1 -14 4 -22 7 -11 12 -12 21 -3 6 6 8 16 5 22 -8
13 -23 14 -30 3z"/>
<path d="M2614 4415 c-4 -8 -4 -22 0 -30 7 -20 36 -8 36 15 0 23 -29 35 -36
15z"/>
<path d="M2810 4415 c-10 -12 -9 -16 5 -21 19 -8 40 9 31 25 -10 15 -21 14
-36 -4z"/>
<path d="M2914 4419 c-3 -6 -1 -16 5 -22 9 -9 14 -8 21 3 9 15 4 30 -10 30 -5
0 -12 -5 -16 -11z"/>
<path d="M3012 4413 c2 -10 10 -18 18 -18 8 0 16 8 18 18 2 12 -3 17 -18 17
-15 0 -20 -5 -18 -17z"/>
<path d="M2203 4404 c-7 -20 11 -38 32 -30 13 4 14 10 5 26 -13 24 -28 26 -37
4z"/>
<path d="M2304 4406 c-7 -19 3 -36 22 -36 10 0 14 8 12 22 -4 26 -26 36 -34
14z"/>
<path d="M2413 4404 c-9 -23 11 -38 26 -20 13 16 7 36 -10 36 -5 0 -12 -7 -16
-16z"/>
<path d="M2716 4411 c-3 -5 0 -14 8 -20 10 -9 15 -8 19 3 9 22 -15 37 -27 17z"/>
<path d="M2010 4380 c0 -11 7 -20 15 -20 8 0 15 9 15 20 0 11 -7 20 -15 20 -8
0 -15 -9 -15 -20z"/>
<path d="M2110 4384 c0 -9 7 -14 17 -12 25 5 28 28 4 28 -12 0 -21 -6 -21 -16z"/>
<path d="M2870 4360 c0 -19 20 -27 33 -13 8 7 -11 33 -24 33 -5 0 -9 -9 -9
-20z"/>
<path d="M2965 4371 c-8 -15 3 -31 21 -31 9 0 14 7 12 17 -4 20 -24 28 -33 14z"/>
<path d="M3060 4365 c0 -8 2 -15 4 -15 2 0 11 -3 20 -6 12 -4 16 0 16 15 0 14
-6 21 -20 21 -11 0 -20 -7 -20 -15z"/>
<path d="M2362 4358 c-18 -18 -14 -28 8 -28 11 0 20 6 20 14 0 21 -15 27 -28
14z"/>
<path d="M2460 4350 c0 -14 7 -20 21 -20 15 0 19 4 15 16 -3 9 -6 18 -6 20 0
2 -7 4 -15 4 -8 0 -15 -9 -15 -20z"/>
<path d="M2560 4356 c0 -8 4 -17 8 -20 13 -8 35 11 28 23 -10 16 -36 14 -36
-3z"/>
<path d="M2660 4357 c0 -19 10 -27 26 -20 21 8 17 33 -6 33 -11 0 -20 -6 -20
-13z"/>
<path d="M2766 4361 c-3 -5 0 -14 8 -20 10 -9 15 -8 19 3 9 22 -15 37 -27 17z"/>
<path d="M2160 4335 c0 -28 12 -32 30 -10 14 16 6 35 -16 35 -8 0 -14 -10 -14
-25z"/>
<path d="M2257 4354 c-9 -10 2 -24 19 -24 8 0 14 7 14 15 0 15 -21 21 -33 9z"/>
<path d="M2060 4329 c0 -24 23 -21 28 4 2 10 -3 17 -12 17 -10 0 -16 -9 -16
-21z"/>
<path d="M3013 4324 c-8 -21 13 -42 28 -27 13 13 5 43 -11 43 -6 0 -13 -7 -17
-16z"/>
<path d="M2821 4316 c-9 -10 -9 -16 -1 -21 17 -10 37 12 24 25 -8 8 -15 6 -23
-4z"/>
<path d="M2924 4315 c-4 -9 -4 -18 -2 -21 9 -8 39 8 35 19 -6 18 -27 20 -33 2z"/>
<path d="M2416 4304 c-9 -23 -8 -24 14 -24 23 0 26 13 6 29 -11 9 -15 8 -20
-5z"/>
<path d="M2516 4313 c-13 -14 -5 -33 14 -33 11 0 20 6 20 14 0 15 -24 28 -34
19z"/>
<path d="M2617 4313 c-14 -13 -6 -33 13 -33 13 0 20 7 20 20 0 19 -20 27 -33
13z"/>
<path d="M2714 4309 c-3 -6 -2 -15 4 -21 13 -13 32 -2 32 18 0 16 -26 19 -36
3z"/>
<path d="M2012 4286 c1 -10 8 -17 13 -17 15 1 12 24 -3 29 -9 3 -13 -2 -10
-12z"/>
<path d="M2110 4280 c0 -11 4 -20 9 -20 13 0 32 26 24 33 -13 14 -33 6 -33
-13z"/>
<path d="M2202 4288 c7 -19 38 -22 38 -4 0 10 -9 16 -21 16 -12 0 -19 -5 -17
-12z"/>
<path d="M2312 4288 c6 -18 28 -21 28 -4 0 9 -7 16 -16 16 -9 0 -14 -5 -12
-12z"/>
<path d="M2967 4273 c-13 -12 -7 -23 13 -23 11 0 20 7 20 15 0 15 -21 21 -33
8z"/>
<path d="M3077 4273 c-12 -11 -8 -23 8 -23 8 0 15 7 15 15 0 16 -12 20 -23 8z"/>
<path d="M2560 4250 c0 -13 7 -20 20 -20 13 0 20 7 20 20 0 13 -7 20 -20 20
-13 0 -20 -7 -20 -20z"/>
<path d="M2670 4249 c0 -24 23 -21 28 4 2 10 -3 17 -12 17 -10 0 -16 -9 -16
-21z"/>
<path d="M2773 4258 c2 -7 10 -13 17 -13 7 0 15 6 18 13 2 7 -5 12 -18 12 -13
0 -20 -5 -17 -12z"/>
<path d="M2870 4255 c0 -17 2 -18 24 -9 18 7 12 24 -10 24 -8 0 -14 -7 -14
-15z"/>
<path d="M2063 4244 c-7 -19 11 -39 26 -30 16 10 13 33 -4 40 -9 3 -18 -1 -22
-10z"/>
<path d="M2163 4244 c-7 -18 17 -38 31 -24 11 11 1 40 -14 40 -6 0 -13 -7 -17
-16z"/>
<path d="M2264 4245 c-3 -8 -3 -19 1 -25 11 -18 25 -11 25 15 0 27 -17 34 -26
10z"/>
<path d="M2364 4249 c-3 -6 -2 -15 2 -19 12 -12 38 5 30 19 -9 14 -23 14 -32
0z"/>
<path d="M2467 4253 c-13 -12 -7 -23 13 -23 11 0 20 7 20 15 0 15 -21 21 -33
8z"/>
<path d="M2823 4214 c-7 -19 11 -39 26 -30 16 10 13 33 -4 40 -9 3 -18 -1 -22
-10z"/>
<path d="M3020 4220 c-13 -9 -13 -11 0 -19 17 -12 30 -5 30 15 0 16 -9 18 -30
4z"/>
<path d="M2515 4211 c-8 -15 3 -31 21 -31 9 0 14 7 12 17 -4 20 -24 28 -33 14z"/>
<path d="M2627 4213 c-13 -12 -7 -33 8 -33 8 0 15 9 15 20 0 20 -11 26 -23 13z"/>
<path d="M2722 4204 c4 -21 22 -23 26 -1 2 10 -3 17 -13 17 -10 0 -15 -6 -13
-16z"/>
<path d="M2923 4208 c2 -7 10 -13 17 -13 7 0 15 6 18 13 2 7 -5 12 -18 12 -13
0 -20 -5 -17 -12z"/>
<path d="M2017 4203 c-14 -13 -6 -33 13 -33 22 0 23 1 14 24 -7 17 -16 20 -27
9z"/>
<path d="M2113 4194 c-8 -20 8 -36 26 -25 15 10 8 41 -9 41 -6 0 -13 -7 -17
-16z"/>
<path d="M2214 4199 c-8 -14 18 -31 30 -19 9 9 0 30 -14 30 -5 0 -12 -5 -16
-11z"/>
<path d="M2320 4196 c0 -8 4 -17 9 -20 10 -7 23 19 14 28 -11 11 -23 6 -23 -8z"/>
<path d="M2415 4200 c-8 -12 20 -24 35 -15 6 3 8 11 5 16 -8 12 -32 12 -40 -1z"/>
<path d="M2976 4173 c-4 -9 0 -23 8 -31 12 -12 15 -11 21 7 11 35 -16 58 -29
24z"/>
<path d="M3081 4177 c-13 -16 -5 -27 21 -27 21 0 23 13 4 29 -10 8 -16 8 -25
-2z"/>
<path d="M2676 4164 c-9 -23 10 -42 26 -26 10 10 9 16 -4 28 -14 14 -16 14
-22 -2z"/>
<path d="M2776 4173 c-3 -4 -6 -15 -6 -25 0 -24 33 -21 38 3 3 17 -21 33 -32
22z"/>
<path d="M2470 4160 c-11 -7 -12 -12 -3 -21 16 -16 44 -4 37 16 -7 17 -13 18
-34 5z"/>
<path d="M2577 4156 c-6 -15 1 -26 15 -26 4 0 8 9 8 20 0 23 -15 27 -23 6z"/>
<path d="M2870 4161 c0 -13 26 -32 33 -24 14 13 6 33 -13 33 -11 0 -20 -4 -20
-9z"/>
<path d="M2167 4154 c-14 -15 -6 -34 14 -34 14 0 19 5 17 17 -3 18 -20 27 -31
17z"/>
<path d="M2270 4140 c0 -14 7 -20 21 -20 15 0 19 4 15 16 -3 9 -6 18 -6 20 0
2 -7 4 -15 4 -8 0 -15 -9 -15 -20z"/>
<path d="M2370 4140 c0 -11 4 -20 9 -20 13 0 32 26 24 33 -13 14 -33 6 -33
-13z"/>
<path d="M1964 4139 c-8 -14 11 -33 25 -25 6 4 11 11 11 16 0 13 -29 20 -36 9z"/>
<path d="M2067 4143 c-13 -12 -7 -23 13 -23 11 0 20 7 20 15 0 15 -21 21 -33
8z"/>
<path d="M2823 4114 c-8 -21 13 -42 28 -27 13 13 5 43 -11 43 -6 0 -13 -7 -17
-16z"/>
<path d="M2935 4120 c-4 -6 -3 -16 3 -22 6 -6 12 -6 17 2 4 6 3 16 -3 22 -6 6
-12 6 -17 -2z"/>
<path d="M3020 4116 c0 -8 4 -17 9 -20 11 -7 33 18 24 27 -12 12 -33 7 -33 -7z"/>
<path d="M3124 4119 c-3 -6 -1 -16 4 -21 13 -13 45 8 36 23 -7 12 -31 11 -40
-2z"/>
<path d="M2622 4103 c4 -21 19 -26 38 -13 13 9 13 11 0 20 -23 15 -42 12 -38
-7z"/>
<path d="M2720 4100 c0 -15 5 -20 18 -18 9 2 17 10 17 18 0 8 -8 16 -17 18
-13 2 -18 -3 -18 -18z"/>
<path d="M2016 4095 c-8 -21 1 -35 20 -35 10 0 14 8 12 22 -4 27 -23 34 -32
13z"/>
<path d="M2117 4104 c-14 -14 -7 -35 11 -32 9 2 17 10 17 17 0 16 -18 25 -28
15z"/>
<path d="M2220 4091 c0 -12 6 -21 16 -21 9 0 14 7 12 17 -5 25 -28 28 -28 4z"/>
<path d="M2320 4090 c0 -15 5 -20 18 -18 9 2 17 10 17 18 0 8 -8 16 -17 18
-13 2 -18 -3 -18 -18z"/>
<path d="M2415 4100 c-8 -14 3 -30 21 -30 8 0 14 9 14 20 0 21 -24 28 -35 10z"/>
<path d="M2517 4103 c-8 -7 11 -33 24 -33 5 0 9 9 9 20 0 19 -20 27 -33 13z"/>
<path d="M2875 4071 c-8 -15 3 -31 21 -31 9 0 14 7 12 17 -4 20 -24 28 -33 14z"/>
<path d="M2975 4070 c-8 -14 3 -30 21 -30 8 0 14 9 14 20 0 21 -24 28 -35 10z"/>
<path d="M3080 4060 c0 -15 5 -20 18 -18 9 2 17 10 17 18 0 8 -8 16 -17 18
-13 2 -18 -3 -18 -18z"/>
<path d="M2576 4061 c-8 -12 3 -41 15 -41 12 0 12 37 0 45 -5 3 -12 1 -15 -4z"/>
<path d="M2780 4055 c-10 -13 -9 -15 9 -15 12 0 21 6 21 15 0 8 -4 15 -9 15
-5 0 -14 -7 -21 -15z"/>
<path d="M2270 4039 c0 -25 33 -22 38 4 2 12 -3 17 -17 17 -15 0 -21 -6 -21
-21z"/>
<path d="M2370 4040 c0 -15 5 -20 18 -18 9 2 17 10 17 18 0 8 -8 16 -17 18
-13 2 -18 -3 -18 -18z"/>
<path d="M2476 4052 c-2 -4 0 -14 5 -22 8 -13 10 -13 19 0 5 8 10 18 10 23 0
10 -28 9 -34 -1z"/>
<path d="M2670 4050 c0 -5 9 -10 20 -10 11 0 20 5 20 10 0 6 -9 10 -20 10 -11
0 -20 -4 -20 -10z"/>
<path d="M1964 4039 c-3 -6 -1 -16 4 -21 13 -13 45 8 36 23 -7 12 -31 11 -40
-2z"/>
<path d="M2072 4043 c-15 -6 -6 -23 14 -23 8 0 14 7 14 15 0 15 -6 17 -28 8z"/>
<path d="M2166 4041 c-3 -5 0 -14 8 -20 10 -8 16 -8 25 2 6 8 8 17 4 20 -9 10
-31 9 -37 -2z"/>
<path d="M2726 4023 c-13 -14 -5 -33 14 -33 11 0 20 6 20 14 0 15 -24 28 -34
19z"/>
<path d="M2827 4024 c-14 -15 -6 -34 14 -34 14 0 19 5 17 17 -3 18 -20 27 -31
17z"/>
<path d="M2937 4023 c-4 -3 -7 -12 -7 -20 0 -15 26 -18 34 -4 7 11 -18 33 -27
24z"/>
<path d="M3030 4010 c0 -11 7 -20 15 -20 8 0 15 9 15 20 0 11 -7 20 -15 20 -8
0 -15 -9 -15 -20z"/>
<path d="M3125 4020 c-4 -7 -3 -16 3 -22 14 -14 45 -2 40 15 -6 16 -34 21 -43
7z"/>
<path d="M2626 4011 c-7 -11 3 -41 14 -41 4 0 13 7 21 16 10 13 10 17 -2 25
-18 11 -26 11 -33 0z"/>
<path d="M2223 3994 c-7 -19 2 -28 22 -21 19 8 19 23 0 31 -9 3 -18 -1 -22
-10z"/>
<path d="M2327 4004 c-14 -15 -6 -34 14 -34 14 0 19 5 17 17 -3 18 -20 27 -31
17z"/>
<path d="M2427 4004 c-14 -14 -7 -35 11 -32 9 2 17 10 17 17 0 16 -18 25 -28
15z"/>
<path d="M2522 3993 c5 -25 28 -28 28 -4 0 12 -6 21 -16 21 -9 0 -14 -7 -12
-17z"/>
<path d="M2015 3991 c-8 -15 3 -31 21 -31 9 0 14 7 12 17 -4 20 -24 28 -33 14z"/>
<path d="M2122 3984 c4 -21 22 -23 26 -1 2 10 -3 17 -13 17 -10 0 -15 -6 -13
-16z"/>
<path d="M2881 3966 c-12 -14 -5 -26 16 -26 15 0 18 26 4 34 -5 3 -14 0 -20
-8z"/>
<path d="M2980 3961 c0 -15 6 -21 21 -21 14 0 19 5 17 17 -5 26 -38 29 -38 4z"/>
<path d="M3080 3960 c0 -13 7 -20 20 -20 13 0 20 7 20 20 0 13 -7 20 -20 20
-13 0 -20 -7 -20 -20z"/>
<path d="M2473 3954 c-8 -21 13 -42 28 -27 13 13 5 43 -11 43 -6 0 -13 -7 -17
-16z"/>
<path d="M2676 3961 c-7 -10 22 -37 30 -28 9 8 -3 37 -15 37 -5 0 -12 -4 -15
-9z"/>
<path d="M2782 3963 c-15 -6 -6 -23 14 -23 8 0 14 7 14 15 0 15 -6 17 -28 8z"/>
<path d="M2270 3942 c0 -24 8 -32 26 -25 19 7 18 29 -2 37 -23 9 -24 8 -24
-12z"/>
<path d="M2370 3939 c0 -25 33 -22 38 4 2 12 -3 17 -17 17 -15 0 -21 -6 -21
-21z"/>
<path d="M2580 3940 c0 -11 2 -20 5 -20 2 0 9 9 15 20 9 16 8 20 -5 20 -8 0
-15 -9 -15 -20z"/>
<path d="M1967 3944 c-16 -16 -6 -35 16 -32 12 2 22 10 22 18 0 16 -26 25 -38
14z"/>
<path d="M2074 3939 c-3 -6 -1 -16 5 -22 9 -9 14 -8 21 3 9 15 4 30 -10 30 -5
0 -12 -5 -16 -11z"/>
<path d="M2172 3933 c2 -10 10 -18 18 -18 8 0 16 8 18 18 2 12 -3 17 -18 17
-15 0 -20 -5 -18 -17z"/>
<path d="M3130 3915 c-10 -12 -9 -16 5 -21 19 -8 40 9 31 25 -10 15 -21 14
-36 -4z"/>
<path d="M2523 3904 c-8 -21 13 -42 28 -27 13 13 5 43 -11 43 -6 0 -13 -7 -17
-16z"/>
<path d="M2625 3910 c-4 -7 -3 -16 3 -22 14 -14 45 -2 40 15 -6 16 -34 21 -43
7z"/>
<path d="M2737 3913 c-13 -12 -7 -33 8 -33 8 0 15 9 15 20 0 20 -11 26 -23 13z"/>
<path d="M2837 3913 c-13 -12 -7 -33 8 -33 8 0 15 9 15 20 0 20 -11 26 -23 13z"/>
<path d="M2930 3904 c0 -9 7 -14 17 -12 25 5 28 28 4 28 -12 0 -21 -6 -21 -16z"/>
<path d="M3030 3904 c0 -9 7 -14 17 -12 25 5 28 28 4 28 -12 0 -21 -6 -21 -16z"/>
<path d="M2330 3900 c-12 -7 -12 -12 -2 -22 9 -9 15 -9 24 0 8 8 9 15 2 22 -5
5 -15 6 -24 0z"/>
<path d="M2424 3899 c-8 -14 11 -33 25 -25 6 4 11 14 11 22 0 16 -26 19 -36 3z"/>
<path d="M2015 3890 c-4 -7 -3 -16 3 -22 14 -14 45 -2 40 15 -6 16 -34 21 -43
7z"/>
<path d="M2124 3889 c-10 -17 13 -36 27 -22 12 12 4 33 -11 33 -5 0 -12 -5
-16 -11z"/>
<path d="M2220 3879 c0 -14 5 -19 17 -17 26 5 29 38 4 38 -15 0 -21 -6 -21
-21z"/>
<path d="M2982 3858 c2 -12 10 -23 18 -23 22 0 19 39 -3 43 -15 3 -18 -1 -15
-20z"/>
<path d="M3084 3869 c-9 -15 11 -33 30 -26 9 4 13 13 10 22 -7 17 -30 20 -40
4z"/>
<path d="M2577 3856 c-7 -18 1 -26 25 -26 21 0 23 11 6 28 -16 16 -25 15 -31
-2z"/>
<path d="M2675 3861 c-9 -16 3 -31 26 -31 14 0 19 6 17 17 -4 20 -33 29 -43
14z"/>
<path d="M2787 3863 c-13 -12 -7 -33 8 -33 8 0 15 9 15 20 0 20 -11 26 -23 13z"/>
<path d="M2882 3853 c5 -26 38 -29 38 -4 0 15 -6 21 -21 21 -14 0 -19 -5 -17
-17z"/>
<path d="M2480 3841 c0 -11 4 -22 9 -25 12 -8 34 21 26 34 -11 17 -35 11 -35
-9z"/>
<path d="M1970 3835 c-10 -12 -9 -16 3 -21 21 -8 37 3 30 21 -7 19 -17 19 -33
0z"/>
<path d="M2076 3835 c-6 -17 17 -31 34 -20 8 5 8 11 -1 21 -15 18 -25 18 -33
-1z"/>
<path d="M2172 3833 c5 -26 38 -29 38 -4 0 15 -6 21 -21 21 -14 0 -19 -5 -17
-17z"/>
<path d="M2274 3834 c3 -9 6 -18 6 -20 0 -2 7 -4 15 -4 8 0 15 9 15 20 0 14
-7 20 -21 20 -15 0 -19 -4 -15 -16z"/>
<path d="M2370 3836 c0 -22 19 -30 35 -16 22 18 18 30 -10 30 -15 0 -25 -6
-25 -14z"/>
<path d="M3142 3816 c1 -10 8 -17 13 -17 15 1 12 24 -3 29 -9 3 -13 -2 -10
-12z"/>
<path d="M2627 3806 c-3 -8 -3 -17 0 -20 4 -3 15 -6 26 -6 13 0 17 5 13 16 -3
9 -6 18 -6 20 0 11 -29 2 -33 -10z"/>
<path d="M2740 3799 c0 -24 23 -21 28 4 2 10 -3 17 -12 17 -10 0 -16 -9 -16
-21z"/>
<path d="M2835 3810 c-8 -14 3 -30 21 -30 8 0 14 9 14 20 0 21 -24 28 -35 10z"/>
<path d="M2932 3803 c2 -10 10 -18 18 -18 8 0 16 8 18 18 2 12 -3 17 -18 17
-15 0 -20 -5 -18 -17z"/>
<path d="M3033 3808 c2 -7 10 -13 17 -13 7 0 15 6 18 13 2 7 -5 12 -18 12 -13
0 -20 -5 -17 -12z"/>
<path d="M2233 3803 c-18 -6 -16 -30 2 -37 9 -3 18 1 22 10 7 18 -7 33 -24 27z"/>
<path d="M2333 3803 c-18 -6 -16 -30 2 -37 9 -3 18 1 22 10 7 18 -7 33 -24 27z"/>
<path d="M2433 3794 c-9 -23 11 -38 26 -20 13 16 7 36 -10 36 -5 0 -12 -7 -16
-16z"/>
<path d="M2530 3791 c0 -11 4 -22 9 -25 12 -8 34 21 26 34 -11 17 -35 11 -35
-9z"/>
<path d="M1923 3784 c-8 -21 13 -42 28 -27 13 13 5 43 -11 43 -6 0 -13 -7 -17
-16z"/>
<path d="M2022 3787 c-8 -10 -6 -16 9 -25 11 -7 24 -10 29 -7 15 9 12 32 -6
39 -21 8 -20 8 -32 -7z"/>
<path d="M2123 3784 c-3 -8 -1 -20 4 -25 12 -12 48 14 39 29 -10 17 -36 15
-43 -4z"/>
<path d="M2690 3755 c-20 -24 4 -45 26 -24 13 14 13 17 1 27 -11 10 -17 9 -27
-3z"/>
<path d="M2787 3755 c-4 -9 -1 -18 9 -22 22 -8 30 5 12 23 -14 14 -16 14 -21
-1z"/>
<path d="M2880 3750 c0 -13 7 -20 20 -20 13 0 20 7 20 20 0 13 -7 20 -20 20
-13 0 -20 -7 -20 -20z"/>
<path d="M2982 3753 c2 -10 10 -18 18 -18 8 0 16 8 18 18 2 12 -3 17 -18 17
-15 0 -20 -5 -18 -17z"/>
<path d="M3092 3754 c4 -21 22 -23 26 -1 2 10 -3 17 -13 17 -10 0 -15 -6 -13
-16z"/>
<path d="M2286 3753 c-12 -12 -6 -33 9 -33 8 0 15 6 15 14 0 17 -14 28 -24 19z"/>
<path d="M2384 3745 c-7 -17 4 -37 17 -30 12 8 12 45 -1 45 -6 0 -13 -7 -16
-15z"/>
<path d="M2480 3740 c0 -15 5 -20 18 -18 9 2 17 10 17 18 0 8 -8 16 -17 18
-13 2 -18 -3 -18 -18z"/>
<path d="M2587 3754 c-14 -14 -7 -35 11 -32 9 2 17 10 17 17 0 16 -18 25 -28
15z"/>
<path d="M2181 3736 c-9 -11 -8 -15 5 -20 23 -9 24 -8 24 14 0 23 -13 26 -29
6z"/>
<path d="M1980 3720 c0 -11 4 -20 9 -20 11 0 22 26 14 34 -12 12 -23 5 -23
-14z"/>
<path d="M2080 3725 c0 -17 2 -18 24 -9 23 9 20 24 -4 24 -11 0 -20 -7 -20
-15z"/>
<path d="M3146 3723 c-3 -4 -6 -15 -6 -25 0 -24 33 -21 38 3 3 17 -21 33 -32
22z"/>
<path d="M2741 3711 c-15 -10 -8 -41 9 -41 15 0 25 29 14 40 -5 5 -15 5 -23 1z"/>
<path d="M2836 3705 c-6 -17 16 -31 33 -21 13 9 2 36 -14 36 -7 0 -16 -7 -19
-15z"/>
<path d="M2935 3710 c-8 -14 3 -30 21 -30 8 0 14 9 14 20 0 21 -24 28 -35 10z"/>
<path d="M3035 3710 c-8 -14 3 -30 21 -30 8 0 14 9 14 20 0 21 -24 28 -35 10z"/>
<path d="M2240 3682 c0 -34 14 -43 24 -15 4 9 0 23 -9 32 -13 14 -15 12 -15
-17z"/>
<path d="M2334 3697 c-8 -22 -1 -30 21 -25 14 3 14 5 1 23 -14 19 -15 19 -22
2z"/>
<path d="M2530 3691 c0 -15 6 -21 21 -21 14 0 19 5 17 17 -5 26 -38 29 -38 4z"/>
<path d="M2636 3702 c-2 -4 -1 -14 4 -22 7 -11 12 -12 21 -3 6 6 8 16 5 22 -8
13 -23 14 -30 3z"/>
<path d="M2430 3685 c0 -8 9 -15 20 -15 11 0 20 7 20 15 0 8 -9 15 -20 15 -11
0 -20 -7 -20 -15z"/>
<path d="M1920 3670 c0 -13 7 -20 20 -20 13 0 20 7 20 20 0 13 -7 20 -20 20
-13 0 -20 -7 -20 -20z"/>
<path d="M2030 3670 c0 -23 10 -26 28 -8 18 18 15 28 -8 28 -13 0 -20 -7 -20
-20z"/>
<path d="M2120 3676 c0 -8 5 -18 10 -21 13 -8 42 14 34 26 -9 15 -44 10 -44
-5z"/>
<path d="M2990 3665 c-6 -8 -9 -19 -6 -24 9 -14 36 -2 36 14 0 21 -16 26 -30
10z"/>
<path d="M3094 3666 c-4 -10 -2 -22 4 -28 8 -8 13 -7 18 6 4 10 2 22 -4 28 -8
8 -13 7 -18 -6z"/>
<path d="M2686 3655 c-6 -17 17 -31 34 -20 8 5 8 11 -1 21 -15 18 -25 18 -33
-1z"/>
<path d="M3190 3656 c0 -21 21 -31 31 -15 14 22 11 29 -11 29 -11 0 -20 -6
-20 -14z"/>
<path d="M2380 3641 c0 -11 4 -22 8 -25 14 -9 35 12 29 28 -9 23 -37 20 -37
-3z"/>
<path d="M2480 3640 c0 -13 7 -20 20 -20 13 0 20 7 20 20 0 13 -7 20 -20 20
-13 0 -20 -7 -20 -20z"/>
<path d="M2582 3643 c5 -26 38 -29 38 -4 0 15 -6 21 -21 21 -14 0 -19 -5 -17
-17z"/>
<path d="M2785 3650 c-8 -12 20 -24 35 -15 6 3 8 11 5 16 -8 12 -32 12 -40 -1z"/>
<path d="M2880 3651 c0 -5 7 -12 16 -15 22 -9 24 -8 24 9 0 8 -9 15 -20 15
-11 0 -20 -4 -20 -9z"/>
<path d="M2086 3643 c-3 -4 -6 -15 -6 -25 0 -24 33 -21 38 3 3 17 -21 33 -32
22z"/>
<path d="M2181 3641 c-12 -8 -12 -12 2 -25 22 -22 27 -20 27 9 0 27 -6 30 -29
16z"/>
<path d="M2285 3640 c-8 -13 4 -32 16 -25 12 8 12 35 0 35 -6 0 -13 -4 -16
-10z"/>
<path d="M1875 3630 c-8 -14 3 -30 21 -30 8 0 14 9 14 20 0 21 -24 28 -35 10z"/>
<path d="M1980 3619 c0 -14 5 -19 17 -17 26 5 29 38 4 38 -15 0 -21 -6 -21
-21z"/>
<path d="M3042 3609 c-11 -16 -9 -19 8 -19 11 0 20 6 20 14 0 24 -15 26 -28 5z"/>
<path d="M3143 3614 c-8 -20 8 -36 26 -25 15 10 8 41 -9 41 -6 0 -13 -7 -17
-16z"/>
<path d="M2940 3609 c-13 -8 -13 -10 0 -19 21 -14 30 -12 30 4 0 20 -13 27
-30 15z"/>
<path d="M2537 3604 c-14 -15 -6 -34 14 -34 14 0 19 5 17 17 -3 18 -20 27 -31
17z"/>
<path d="M2640 3590 c0 -11 7 -20 15 -20 8 0 15 9 15 20 0 11 -7 20 -15 20 -8
0 -15 -9 -15 -20z"/>
<path d="M2736 3602 c-2 -4 -1 -14 4 -22 7 -11 11 -11 24 -1 9 8 16 17 16 22
0 11 -37 12 -44 1z"/>
<path d="M2832 3598 c5 -15 37 -18 41 -3 1 6 -9 12 -22 13 -16 3 -22 -1 -19
-10z"/>
<path d="M2037 3593 c-10 -9 -8 -43 2 -43 5 0 14 7 21 15 17 21 -4 48 -23 28z"/>
<path d="M2335 3589 c-10 -15 1 -23 20 -15 9 3 13 10 10 16 -8 13 -22 13 -30
-1z"/>
<path d="M2430 3585 c0 -8 9 -15 20 -15 11 0 20 7 20 15 0 8 -9 15 -20 15 -11
0 -20 -7 -20 -15z"/>
<path d="M1931 3577 c-12 -15 -5 -27 16 -27 7 0 13 9 13 20 0 23 -13 26 -29 7z"/>
<path d="M2120 3576 c0 -22 19 -30 35 -16 22 18 18 30 -10 30 -15 0 -25 -6
-25 -14z"/>
<path d="M2242 3574 c4 -21 22 -23 26 -1 2 10 -3 17 -13 17 -10 0 -15 -6 -13
-16z"/>
<path d="M3093 3564 c-8 -21 13 -42 28 -27 13 13 5 43 -11 43 -6 0 -13 -7 -17
-16z"/>
<path d="M3193 3564 c-7 -18 17 -38 31 -24 11 11 1 40 -14 40 -6 0 -13 -7 -17
-16z"/>
<path d="M2894 3555 c-9 -23 14 -45 26 -25 5 8 8 19 7 24 -6 17 -27 18 -33 1z"/>
<path d="M2990 3560 c-11 -7 -12 -12 -3 -21 14 -14 46 -4 41 13 -6 16 -20 19
-38 8z"/>
<path d="M2690 3540 c0 -15 5 -20 18 -18 9 2 17 10 17 18 0 8 -8 16 -17 18
-13 2 -18 -3 -18 -18z"/>
<path d="M2785 3550 c-8 -13 3 -30 20 -30 14 0 27 24 18 34 -10 9 -31 7 -38
-4z"/>
<path d="M2080 3535 c-9 -10 -10 -19 -3 -26 14 -14 45 0 41 19 -4 22 -23 25
-38 7z"/>
<path d="M2185 3541 c-8 -15 3 -31 21 -31 9 0 14 7 12 17 -4 20 -24 28 -33 14z"/>
<path d="M2287 3544 c-16 -16 -6 -35 16 -32 12 2 22 10 22 18 0 16 -26 25 -38
14z"/>
<path d="M1980 3526 c0 -10 9 -16 21 -16 24 0 21 23 -4 28 -10 2 -17 -3 -17
-12z"/>
<path d="M3046 3514 c-9 -23 10 -42 26 -26 10 10 9 16 -4 28 -14 14 -16 14
-22 -2z"/>
<path d="M3152 3518 c-18 -18 -14 -28 8 -28 11 0 20 6 20 14 0 21 -15 27 -28
14z"/>
<path d="M2743 3504 c-7 -19 11 -39 26 -30 16 10 13 33 -4 40 -9 3 -18 -1 -22
-10z"/>
<path d="M2853 3513 c-18 -7 -16 -33 2 -33 8 0 15 9 15 20 0 11 -1 20 -2 19
-2 0 -9 -3 -15 -6z"/>
<path d="M2942 3498 c6 -18 25 -20 31 -3 5 10 0 15 -14 15 -12 0 -19 -5 -17
-12z"/>
<path d="M2125 3491 c-9 -16 3 -31 26 -31 14 0 19 6 17 17 -4 20 -33 29 -43
14z"/>
<path d="M2240 3480 c0 -15 5 -20 18 -18 9 2 17 10 17 18 0 8 -8 16 -17 18
-13 2 -18 -3 -18 -18z"/>
<path d="M2696 3453 c-9 -22 10 -41 25 -26 13 13 5 43 -10 43 -5 0 -12 -8 -15
-17z"/>
<path d="M2793 3454 c-8 -20 13 -42 27 -28 12 12 3 44 -11 44 -5 0 -12 -7 -16
-16z"/>
<path d="M2897 3463 c-4 -3 -7 -12 -7 -20 0 -17 26 -17 33 1 8 21 -11 35 -26
19z"/>
<path d="M2190 3431 c0 -15 6 -21 21 -21 14 0 19 5 17 17 -5 26 -38 29 -38 4z"/>
<path d="M2543 3394 c-8 -20 13 -42 27 -28 12 12 3 44 -11 44 -5 0 -12 -7 -16
-16z"/>
<path d="M2646 3403 c-12 -12 -5 -23 14 -23 11 0 20 4 20 9 0 11 -26 22 -34
14z"/>
<path d="M2747 3404 c-13 -13 -7 -24 14 -24 11 0 19 5 17 12 -5 14 -22 21 -31
12z"/>
<path d="M2240 3380 c0 -15 5 -20 18 -18 9 2 17 10 17 18 0 8 -8 16 -17 18
-13 2 -18 -3 -18 -18z"/>
<path d="M2693 3354 c-8 -21 13 -42 28 -27 13 13 5 43 -11 43 -6 0 -13 -7 -17
-16z"/>
<path d="M2590 3337 c0 -19 10 -27 26 -20 21 8 17 33 -6 33 -11 0 -20 -6 -20
-13z"/>
<path d="M2312 2658 c-18 -18 -15 -94 4 -112 30 -31 44 -13 44 58 0 37 -13 66
-30 66 -3 0 -11 -5 -18 -12z"/>
<path d="M4068 1805 c-21 -8 -58 -28 -83 -45 l-44 -30 -17 32 c-22 44 -30 48
-91 48 -95 0 -98 -6 -52 -120 l32 -77 -36 -209 c-35 -197 -36 -210 -19 -222
20 -15 116 -12 133 5 6 6 26 100 45 209 33 186 38 201 66 231 38 39 75 55 119
51 57 -5 69 -44 69 -220 l0 -148 -79 0 c-93 0 -103 -8 -99 -77 l3 -48 156 -3
c142 -2 157 -1 164 15 13 34 27 278 20 362 -7 94 -34 177 -68 209 -52 49 -144
65 -219 37z"/>
<path d="M777 1795 c-19 -19 -22 -66 -7 -96 8 -14 21 -19 55 -19 l45 0 0 -159
c0 -189 -6 -211 -54 -211 -45 0 -58 -18 -54 -77 l3 -48 75 -3 c65 -2 81 0 110
20 68 46 75 70 78 287 l4 194 73 -6 c139 -10 145 -23 145 -291 0 -221 -2 -216
80 -216 82 0 80 -5 80 220 0 235 -9 288 -57 340 -56 63 -97 72 -344 77 -192 5
-217 3 -232 -12z"/>
<path d="M1562 1798 c-9 -9 -12 -92 -12 -310 l0 -298 26 -10 c29 -11 78 -13
112 -4 l22 6 0 308 c0 272 -2 309 -16 314 -28 11 -120 6 -132 -6z"/>
<path d="M1831 1801 c-18 -12 -11 -28 50 -116 l51 -74 -30 -43 c-55 -80 -65
-114 -70 -250 l-4 -128 26 -10 c30 -11 79 -13 112 -4 20 5 22 13 26 127 3 81
9 131 19 150 l15 27 103 -145 c64 -91 112 -150 127 -156 55 -20 154 -6 154 23
0 6 -31 55 -70 109 -38 54 -70 102 -70 108 0 5 20 33 45 62 27 32 52 74 60
103 18 60 20 197 3 214 -13 13 -116 16 -134 4 -6 -4 -13 -45 -16 -93 -3 -66
-9 -94 -27 -122 -12 -20 -26 -37 -29 -37 -4 1 -38 46 -77 102 -108 155 -111
158 -187 158 -34 0 -69 -4 -77 -9z"/>
<path d="M2522 1798 c-9 -9 -12 -92 -12 -310 l0 -298 26 -10 c29 -11 78 -13
112 -4 l22 6 0 308 c0 272 -2 309 -16 314 -28 11 -120 6 -132 -6z"/>
<path d="M2822 1798 c-9 -9 -12 -92 -12 -310 l0 -298 26 -10 c29 -11 78 -13
112 -4 l22 6 0 308 c0 272 -2 309 -16 314 -28 11 -120 6 -132 -6z"/>
<path d="M3117 1795 c-19 -18 -22 -66 -7 -96 10 -17 23 -19 158 -19 161 0 216
-10 233 -42 22 -41 4 -130 -60 -290 -57 -141 -60 -154 -44 -165 9 -7 36 -13
59 -13 81 0 85 5 146 162 69 174 86 255 69 324 -17 67 -42 98 -103 124 -48 21
-72 24 -244 28 -169 4 -192 2 -207 -13z"/>
<path d="M3133 1540 l-23 -9 0 -276 0 -275 26 -10 c33 -13 90 -13 115 0 18 10
19 24 19 289 l0 279 -22 6 c-32 8 -89 6 -115 -4z"/>
</g>
</svg>
